{"scene":0,"asset":{"generator":"ImageToStl.com","version":"2.0"},"scenes":[{"name":"Scene","nodes":[0]}],"nodes":[{"name":"Node0","children":[1,2]},{"name":"Node1","mesh":0},{"name":"Node2","mesh":1}],"materials":[{"name":"Material","pbrMetallicRoughness":{"baseColorFactor":[0.105146,0.388779,0.80222,1.0],"metallicFactor":0.5,"roughnessFactor":0.75},"emissiveFactor":[0.0,0.0,0.0],"doubleSided":true},{"name":"busIconWhite","pbrMetallicRoughness":{"baseColorFactor":[0.8,0.8,0.8,1.0],"metallicFactor":0.5,"roughnessFactor":0.75,"baseColorTexture":{"index":0}},"emissiveFactor":[0.0,0.0,0.0],"doubleSided":true}],"images":[{"bufferView":0,"name":"","mimeType":"image/png"}],"textures":[{"sampler":0,"source":0}],"samplers":[{"magFilter":9729,"minFilter":9987}],"meshes":[{"name":"Mesh0","primitives":[{"indices":3,"material":0,"attributes":{"POSITION":0,"NORMAL":1,"TEXCOORD_0":2}}]},{"name":"Mesh0","primitives":[{"indices":7,"material":1,"attributes":{"POSITION":4,"NORMAL":5,"TEXCOORD_0":6}}]}],"accessors":[{"bufferView":1,"componentType":5126,"count":1048,"type":"VEC3","min":[-1.0002396,-1.0062844,0.03905797],"max":[1.0054431,0.9993983,6.056106]},{"bufferView":2,"componentType":5126,"count":1048,"type":"VEC3"},{"bufferView":3,"componentType":5126,"count":1048,"type":"VEC2"},{"bufferView":4,"componentType":5123,"count":13068,"type":"SCALAR"},{"bufferView":5,"componentType":5126,"count":4,"type":"VEC3","min":[-1.0119748,-0.99624336,6.0703335],"max":[0.9880252,1.0037566,6.0703335]},{"bufferView":6,"componentType":5126,"count":4,"type":"VEC3"},{"bufferView":7,"componentType":5126,"count":4,"type":"VEC2"},{"bufferView":8,"componentType":5123,"count":18,"type":"SCALAR"}],"bufferViews":[{"buffer":0,"byteLength":34816,"byteOffset":0},{"target":34962,"buffer":0,"byteLength":12576,"byteOffset":34816},{"target":34962,"buffer":0,"byteLength":12576,"byteOffset":47392},{"target":34962,"buffer":0,"byteLength":8384,"byteOffset":59968},{"target":34963,"buffer":0,"byteLength":26136,"byteOffset":68352},{"target":34962,"buffer":0,"byteLength":48,"byteOffset":94488},{"target":34962,"buffer":0,"byteLength":48,"byteOffset":94536},{"target":34962,"buffer":0,"byteLength":32,"byteOffset":94584},{"target":34963,"buffer":0,"byteLength":36,"byteOffset":94616}],"buffers":[{"byteLength":94652,"uri":"data:application/octet-stream;base64,"}]}