{"scene":0,"asset":{"generator":"ImageToStl.com","version":"2.0"},"scenes":[{"name":"Scene","nodes":[0]}],"nodes":[{"name":"Node0","children":[1,2,3,4,5,6]},{"name":"Node1","mesh":0},{"name":"Node2","mesh":1},{"name":"Node3","mesh":2},{"name":"Node4","mesh":3},{"name":"Node5","mesh":4},{"name":"Node6","mesh":5}],"materials":[{"name":"Roof","pbrMetallicRoughness":{"baseColorFactor":[0.034339,0.564712,0.06301,1.0],"metallicFactor":0.5,"roughnessFactor":0.75},"emissiveFactor":[0.0,0.0,0.0],"doubleSided":true},{"name":"Material.001","pbrMetallicRoughness":{"baseColorFactor":[1.0,0.0,0.003484,1.0],"metallicFactor":0.5,"roughnessFactor":0.75},"emissiveFactor":[0.0,0.0,0.0],"doubleSided":true},{"name":"Material.002","pbrMetallicRoughness":{"baseColorFactor":[0.0,0.0,0.0,1.0],"metallicFactor":0.5,"roughnessFactor":0.75},"emissiveFactor":[0.0,0.0,0.0],"doubleSided":true},{"name":"Material.003","pbrMetallicRoughness":{"baseColorFactor":[0.0,0.0,0.0,1.0],"metallicFactor":0.5,"roughnessFactor":0.75},"emissiveFactor":[0.0,0.0,0.0],"doubleSided":true},{"name":"Material.004","pbrMetallicRoughness":{"baseColorFactor":[0.0,0.0,0.0,1.0],"metallicFactor":0.5,"roughnessFactor":0.75},"emissiveFactor":[0.0,0.0,0.0],"doubleSided":true},{"name":"Material.005","pbrMetallicRoughness":{"baseColorFactor":[0.0,0.0,0.0,1.0],"metallicFactor":0.5,"roughnessFactor":0.75},"emissiveFactor":[0.0,0.0,0.0],"doubleSided":true},{"name":"Material.006","pbrMetallicRoughness":{"baseColorFactor":[1.0,1.0,1.0,1.0],"metallicFactor":0.5,"roughnessFactor":0.75},"emissiveFactor":[0.0,0.0,0.0],"doubleSided":true}],"meshes":[{"name":"Mesh0","primitives":[{"indices":3,"material":0,"attributes":{"POSITION":0,"NORMAL":1,"TEXCOORD_0":2}}]},{"name":"Mesh0","primitives":[{"indices":7,"material":2,"attributes":{"POSITION":4,"NORMAL":5,"TEXCOORD_0":6}}]},{"name":"Mesh0","primitives":[{"indices":11,"material":3,"attributes":{"POSITION":8,"NORMAL":9,"TEXCOORD_0":10}}]},{"name":"Mesh0","primitives":[{"indices":15,"material":4,"attributes":{"POSITION":12,"NORMAL":13,"TEXCOORD_0":14}}]},{"name":"Mesh0","primitives":[{"indices":19,"material":5,"attributes":{"POSITION":16,"NORMAL":17,"TEXCOORD_0":18}}]},{"name":"Mesh0","primitives":[{"indices":23,"material":6,"attributes":{"POSITION":20,"NORMAL":21,"TEXCOORD_0":22}}]}],"accessors":[{"bufferView":0,"componentType":5126,"count":32,"type":"VEC3","min":[-1.9956522,-1.9929512,1.7841417],"max":[2.0237272,2.016009,3.8134997]},{"bufferView":1,"componentType":5126,"count":32,"type":"VEC3"},{"bufferView":2,"componentType":5126,"count":32,"type":"VEC2"},{"bufferView":3,"componentType":5123,"count":198,"type":"SCALAR"},{"bufferView":4,"componentType":5126,"count":14,"type":"VEC3","min":[-1.6606009,1.4924586,0.010701537],"max":[-1.4606009,1.6924586,2.1007013]},{"bufferView":5,"componentType":5126,"count":14,"type":"VEC3"},{"bufferView":6,"componentType":5126,"count":14,"type":"VEC2"},{"bufferView":7,"componentType":5123,"count":108,"type":"SCALAR"},{"bufferView":8,"componentType":5126,"count":14,"type":"VEC3","min":[1.5240762,-1.692218,0.010700941],"max":[1.7240763,-1.4922179,2.1007009]},{"bufferView":9,"componentType":5126,"count":14,"type":"VEC3"},{"bufferView":10,"componentType":5126,"count":14,"type":"VEC2"},{"bufferView":11,"componentType":5123,"count":108,"type":"SCALAR"},{"bufferView":12,"componentType":5126,"count":14,"type":"VEC3","min":[-1.6496567,-1.6484429,0.010700941],"max":[-1.4496564,-1.4484426,2.1007009]},{"bufferView":13,"componentType":5126,"count":14,"type":"VEC3"},{"bufferView":14,"componentType":5126,"count":14,"type":"VEC2"},{"bufferView":15,"componentType":5123,"count":108,"type":"SCALAR"},{"bufferView":16,"componentType":5126,"count":14,"type":"VEC3","min":[1.5350195,1.5362347,0.010701537],"max":[1.7350198,1.736235,2.1007013]},{"bufferView":17,"componentType":5126,"count":14,"type":"VEC3"},{"bufferView":18,"componentType":5126,"count":14,"type":"VEC2"},{"bufferView":19,"componentType":5123,"count":108,"type":"SCALAR"},{"bufferView":20,"componentType":5126,"count":52,"type":"VEC3","min":[-1.210515,-0.4067049,-0.011509895],"max":[1.2128849,0.43671855,0.5785233]},{"bufferView":21,"componentType":5126,"count":52,"type":"VEC3"},{"bufferView":22,"componentType":5126,"count":52,"type":"VEC2"},{"bufferView":23,"componentType":5123,"count":702,"type":"SCALAR"}],"bufferViews":[{"target":34962,"buffer":0,"byteLength":384,"byteOffset":0},{"target":34962,"buffer":0,"byteLength":384,"byteOffset":384},{"target":34962,"buffer":0,"byteLength":256,"byteOffset":768},{"target":34963,"buffer":0,"byteLength":396,"byteOffset":1024},{"target":34962,"buffer":0,"byteLength":168,"byteOffset":1420},{"target":34962,"buffer":0,"byteLength":168,"byteOffset":1588},{"target":34962,"buffer":0,"byteLength":112,"byteOffset":1756},{"target":34963,"buffer":0,"byteLength":216,"byteOffset":1868},{"target":34962,"buffer":0,"byteLength":168,"byteOffset":2084},{"target":34962,"buffer":0,"byteLength":168,"byteOffset":2252},{"target":34962,"buffer":0,"byteLength":112,"byteOffset":2420},{"target":34963,"buffer":0,"byteLength":216,"byteOffset":2532},{"target":34962,"buffer":0,"byteLength":168,"byteOffset":2748},{"target":34962,"buffer":0,"byteLength":168,"byteOffset":2916},{"target":34962,"buffer":0,"byteLength":112,"byteOffset":3084},{"target":34963,"buffer":0,"byteLength":216,"byteOffset":3196},{"target":34962,"buffer":0,"byteLength":168,"byteOffset":3412},{"target":34962,"buffer":0,"byteLength":168,"byteOffset":3580},{"target":34962,"buffer":0,"byteLength":112,"byteOffset":3748},{"target":34963,"buffer":0,"byteLength":216,"byteOffset":3860},{"target":34962,"buffer":0,"byteLength":624,"byteOffset":4076},{"target":34962,"buffer":0,"byteLength":624,"byteOffset":4700},{"target":34962,"buffer":0,"byteLength":416,"byteOffset":5324},{"target":34963,"buffer":0,"byteLength":1404,"byteOffset":5740}],"buffers":[{"byteLength":7144,"uri":"data:application/octet-stream;base64,"}]}