{"scene":0,"asset":{"generator":"ImageToStl.com","version":"2.0"},"scenes":[{"name":"Scene","nodes":[0]}],"nodes":[{"name":"Node0","children":[1,2,3,4,5,6,7,8,9,10]},{"name":"Node1","mesh":0},{"name":"Node2","mesh":1},{"name":"Node3","mesh":2},{"name":"Node4","mesh":3},{"name":"Node5","mesh":4},{"name":"Node6","mesh":5},{"name":"Node7","mesh":6},{"name":"Node8","mesh":7},{"name":"Node9","mesh":8},{"name":"Node10","mesh":9}],"materials":[{"name":"Material","pbrMetallicRoughness":{"baseColorFactor":[0.0,0.809379,0.402439,1.0],"metallicFactor":0.5,"roughnessFactor":0.75},"emissiveFactor":[0.0,0.0,0.0],"doubleSided":true},{"name":"Material.002","pbrMetallicRoughness":{"baseColorFactor":[1.0,1.0,1.0,1.0],"metallicFactor":0.5,"roughnessFactor":0.75},"emissiveFactor":[0.0,0.0,0.0],"doubleSided":true},{"name":"Material.003","pbrMetallicRoughness":{"baseColorFactor":[0.115149,0.114539,0.125452,1.0],"metallicFactor":0.5,"roughnessFactor":0.75},"emissiveFactor":[0.0,0.0,0.0],"doubleSided":true}],"meshes":[{"name":"Mesh0","primitives":[{"indices":3,"material":0,"attributes":{"POSITION":0,"NORMAL":1,"TEXCOORD_0":2}}]},{"name":"Mesh0","primitives":[{"indices":7,"material":1,"attributes":{"POSITION":4,"NORMAL":5,"TEXCOORD_0":6}}]},{"name":"Mesh0","primitives":[{"indices":11,"material":1,"attributes":{"POSITION":8,"NORMAL":9,"TEXCOORD_0":10}}]},{"name":"Mesh0","primitives":[{"indices":15,"material":1,"attributes":{"POSITION":12,"NORMAL":13,"TEXCOORD_0":14}}]},{"name":"Mesh0","primitives":[{"indices":19,"material":1,"attributes":{"POSITION":16,"NORMAL":17,"TEXCOORD_0":18}}]},{"name":"Mesh0","primitives":[{"indices":23,"material":1,"attributes":{"POSITION":20,"NORMAL":21,"TEXCOORD_0":22}}]},{"name":"Mesh0","primitives":[{"indices":27,"material":2,"attributes":{"POSITION":24,"NORMAL":25,"TEXCOORD_0":26}}]},{"name":"Mesh0","primitives":[{"indices":31,"material":2,"attributes":{"POSITION":28,"NORMAL":29,"TEXCOORD_0":30}}]},{"name":"Mesh0","primitives":[{"indices":35,"material":2,"attributes":{"POSITION":32,"NORMAL":33,"TEXCOORD_0":34}}]},{"name":"Mesh0","primitives":[{"indices":39,"material":2,"attributes":{"POSITION":36,"NORMAL":37,"TEXCOORD_0":38}}]}],"accessors":[{"bufferView":0,"componentType":5126,"count":14,"type":"VEC3","min":[-1.0855213,-1.0932693,-0.34639382],"max":[1.0924317,1.0846837,6.187465]},{"bufferView":1,"componentType":5126,"count":14,"type":"VEC3"},{"bufferView":2,"componentType":5126,"count":14,"type":"VEC2"},{"bufferView":3,"componentType":5123,"count":108,"type":"SCALAR"},{"bufferView":4,"componentType":5126,"count":445,"type":"VEC3","min":[-0.70914996,-0.61922425,6.1230273],"max":[0.7308501,0.8107757,6.323027]},{"bufferView":5,"componentType":5126,"count":445,"type":"VEC3"},{"bufferView":6,"componentType":5126,"count":445,"type":"VEC2"},{"bufferView":7,"componentType":5123,"count":6876,"type":"SCALAR"},{"bufferView":8,"componentType":5126,"count":130,"type":"VEC3","min":[-0.83957314,0.18405631,6.10596],"max":[-0.6395731,0.48405632,6.3059597]},{"bufferView":9,"componentType":5126,"count":130,"type":"VEC3"},{"bufferView":10,"componentType":5126,"count":130,"type":"VEC2"},{"bufferView":11,"componentType":5123,"count":1116,"type":"SCALAR"},{"bufferView":12,"componentType":5126,"count":130,"type":"VEC3","min":[0.6607032,0.17927313,6.1072927],"max":[0.86070323,0.47927314,6.3072925]},{"bufferView":13,"componentType":5126,"count":130,"type":"VEC3"},{"bufferView":14,"componentType":5126,"count":130,"type":"VEC2"},{"bufferView":15,"componentType":5123,"count":1116,"type":"SCALAR"},{"bufferView":16,"componentType":5126,"count":144,"type":"VEC3","min":[-0.62647045,-0.8574684,6.145951],"max":[-0.36727035,-0.5161754,6.3063774]},{"bufferView":17,"componentType":5126,"count":144,"type":"VEC3"},{"bufferView":18,"componentType":5126,"count":144,"type":"VEC2"},{"bufferView":19,"componentType":5123,"count":1224,"type":"SCALAR"},{"bufferView":20,"componentType":5126,"count":144,"type":"VEC3","min":[0.40039265,-0.8630797,6.145951],"max":[0.65959275,-0.5217867,6.3063774]},{"bufferView":21,"componentType":5126,"count":144,"type":"VEC3"},{"bufferView":22,"componentType":5126,"count":144,"type":"VEC2"},{"bufferView":23,"componentType":5123,"count":1224,"type":"SCALAR"},{"bufferView":24,"componentType":5126,"count":130,"type":"VEC3","min":[-0.6056774,-0.52404314,6.3183413],"max":[-0.37767738,-0.2960431,6.363941]},{"bufferView":25,"componentType":5126,"count":130,"type":"VEC3"},{"bufferView":26,"componentType":5126,"count":130,"type":"VEC2"},{"bufferView":27,"componentType":5123,"count":1116,"type":"SCALAR"},{"bufferView":28,"componentType":5126,"count":130,"type":"VEC3","min":[0.4247734,-0.52404314,6.3183413],"max":[0.65277344,-0.2960431,6.363941]},{"bufferView":29,"componentType":5126,"count":130,"type":"VEC3"},{"bufferView":30,"componentType":5126,"count":130,"type":"VEC2"},{"bufferView":31,"componentType":5123,"count":1116,"type":"SCALAR"},{"bufferView":32,"componentType":5126,"count":274,"type":"VEC3","min":[-0.44234416,0.6162427,6.311466],"max":[0.48121548,0.72454244,6.367056]},{"bufferView":33,"componentType":5126,"count":274,"type":"VEC3"},{"bufferView":34,"componentType":5126,"count":274,"type":"VEC2"},{"bufferView":35,"componentType":5123,"count":2340,"type":"SCALAR"},{"bufferView":36,"componentType":5126,"count":445,"type":"VEC3","min":[-0.6046986,-0.13458268,6.304687],"max":[0.6625015,0.5089172,6.378287]},{"bufferView":37,"componentType":5126,"count":445,"type":"VEC3"},{"bufferView":38,"componentType":5126,"count":445,"type":"VEC2"},{"bufferView":39,"componentType":5123,"count":6876,"type":"SCALAR"}],"bufferViews":[{"target":34962,"buffer":0,"byteLength":168,"byteOffset":0},{"target":34962,"buffer":0,"byteLength":168,"byteOffset":168},{"target":34962,"buffer":0,"byteLength":112,"byteOffset":336},{"target":34963,"buffer":0,"byteLength":216,"byteOffset":448},{"target":34962,"buffer":0,"byteLength":5340,"byteOffset":664},{"target":34962,"buffer":0,"byteLength":5340,"byteOffset":6004},{"target":34962,"buffer":0,"byteLength":3560,"byteOffset":11344},{"target":34963,"buffer":0,"byteLength":13752,"byteOffset":14904},{"target":34962,"buffer":0,"byteLength":1560,"byteOffset":28656},{"target":34962,"buffer":0,"byteLength":1560,"byteOffset":30216},{"target":34962,"buffer":0,"byteLength":1040,"byteOffset":31776},{"target":34963,"buffer":0,"byteLength":2232,"byteOffset":32816},{"target":34962,"buffer":0,"byteLength":1560,"byteOffset":35048},{"target":34962,"buffer":0,"byteLength":1560,"byteOffset":36608},{"target":34962,"buffer":0,"byteLength":1040,"byteOffset":38168},{"target":34963,"buffer":0,"byteLength":2232,"byteOffset":39208},{"target":34962,"buffer":0,"byteLength":1728,"byteOffset":41440},{"target":34962,"buffer":0,"byteLength":1728,"byteOffset":43168},{"target":34962,"buffer":0,"byteLength":1152,"byteOffset":44896},{"target":34963,"buffer":0,"byteLength":2448,"byteOffset":46048},{"target":34962,"buffer":0,"byteLength":1728,"byteOffset":48496},{"target":34962,"buffer":0,"byteLength":1728,"byteOffset":50224},{"target":34962,"buffer":0,"byteLength":1152,"byteOffset":51952},{"target":34963,"buffer":0,"byteLength":2448,"byteOffset":53104},{"target":34962,"buffer":0,"byteLength":1560,"byteOffset":55552},{"target":34962,"buffer":0,"byteLength":1560,"byteOffset":57112},{"target":34962,"buffer":0,"byteLength":1040,"byteOffset":58672},{"target":34963,"buffer":0,"byteLength":2232,"byteOffset":59712},{"target":34962,"buffer":0,"byteLength":1560,"byteOffset":61944},{"target":34962,"buffer":0,"byteLength":1560,"byteOffset":63504},{"target":34962,"buffer":0,"byteLength":1040,"byteOffset":65064},{"target":34963,"buffer":0,"byteLength":2232,"byteOffset":66104},{"target":34962,"buffer":0,"byteLength":3288,"byteOffset":68336},{"target":34962,"buffer":0,"byteLength":3288,"byteOffset":71624},{"target":34962,"buffer":0,"byteLength":2192,"byteOffset":74912},{"target":34963,"buffer":0,"byteLength":4680,"byteOffset":77104},{"target":34962,"buffer":0,"byteLength":5340,"byteOffset":81784},{"target":34962,"buffer":0,"byteLength":5340,"byteOffset":87124},{"target":34962,"buffer":0,"byteLength":3560,"byteOffset":92464},{"target":34963,"buffer":0,"byteLength":13752,"byteOffset":96024}],"buffers":[{"byteLength":109776,"uri":"data:application/octet-stream;base64,"}]}