{"scene":0,"asset":{"generator":"ImageToStl.com","version":"2.0"},"scenes":[{"name":"Scene","nodes":[0]}],"nodes":[{"name":"Node0","children":[1,2]},{"name":"Node1","mesh":0},{"name":"Node2","mesh":1}],"materials":[{"name":"Material","pbrMetallicRoughness":{"baseColorFactor":[0.105146,0.388779,0.80222,1.0],"metallicFactor":0.5,"roughnessFactor":0.75},"emissiveFactor":[0.0,0.0,0.0],"doubleSided":true},{"name":"busIconWhite","pbrMetallicRoughness":{"baseColorFactor":[0.8,0.8,0.8,1.0],"metallicFactor":0.5,"roughnessFactor":0.75},"emissiveFactor":[0.0,0.0,0.0],"doubleSided":true}],"meshes":[{"name":"Mesh0","primitives":[{"indices":3,"material":0,"attributes":{"POSITION":0,"NORMAL":1,"TEXCOORD_0":2}}]},{"name":"Mesh0","primitives":[{"indices":7,"material":1,"attributes":{"POSITION":4,"NORMAL":5,"TEXCOORD_0":6}}]}],"accessors":[{"bufferView":0,"componentType":5126,"count":1048,"type":"VEC3","min":[-1.0002396,-1.0062844,0.03905797],"max":[1.0054431,0.9993983,6.056106]},{"bufferView":1,"componentType":5126,"count":1048,"type":"VEC3"},{"bufferView":2,"componentType":5126,"count":1048,"type":"VEC2"},{"bufferView":3,"componentType":5123,"count":13068,"type":"SCALAR"},{"bufferView":4,"componentType":5126,"count":4,"type":"VEC3","min":[-1.0041442,-0.99177694,6.067786],"max":[0.9958558,1.008223,6.067786]},{"bufferView":5,"componentType":5126,"count":4,"type":"VEC3"},{"bufferView":6,"componentType":5126,"count":4,"type":"VEC2"},{"bufferView":7,"componentType":5123,"count":18,"type":"SCALAR"}],"bufferViews":[{"target":34962,"buffer":0,"byteLength":12576,"byteOffset":0},{"target":34962,"buffer":0,"byteLength":12576,"byteOffset":12576},{"target":34962,"buffer":0,"byteLength":8384,"byteOffset":25152},{"target":34963,"buffer":0,"byteLength":26136,"byteOffset":33536},{"target":34962,"buffer":0,"byteLength":48,"byteOffset":59672},{"target":34962,"buffer":0,"byteLength":48,"byteOffset":59720},{"target":34962,"buffer":0,"byteLength":32,"byteOffset":59768},{"target":34963,"buffer":0,"byteLength":36,"byteOffset":59800}],"buffers":[{"byteLength":59836,"uri":"data:application/octet-stream;base64,"}]}