{"scene":0,"asset":{"generator":"ImageToStl.com","version":"2.0"},"scenes":[{"name":"Scene","nodes":[0]}],"nodes":[{"name":"Node0","children":[1]},{"name":"Node1","mesh":0}],"materials":[{"name":"Material.005","pbrMetallicRoughness":{"baseColorFactor":[0.693868,0.799104,0.039546,1.0],"metallicFactor":0.5,"roughnessFactor":0.75},"emissiveFactor":[0.0,0.0,0.0],"doubleSided":true},{"name":"Material","pbrMetallicRoughness":{"baseColorFactor":[0.693868,0.799104,0.039546,1.0],"metallicFactor":0.5,"roughnessFactor":0.75},"emissiveFactor":[0.0,0.0,0.0],"doubleSided":true},{"name":"Material.001","pbrMetallicRoughness":{"baseColorFactor":[0.693868,0.799104,0.039546,1.0],"metallicFactor":0.5,"roughnessFactor":0.75},"emissiveFactor":[0.0,0.0,0.0],"doubleSided":true},{"name":"Material.002","pbrMetallicRoughness":{"baseColorFactor":[0.86765,1.0,0.047887,1.0],"metallicFactor":0.5,"roughnessFactor":0.75},"emissiveFactor":[0.0,0.0,0.0],"doubleSided":true},{"name":"Material.003","pbrMetallicRoughness":{"baseColorFactor":[0.693868,0.799104,0.039546,1.0],"metallicFactor":0.5,"roughnessFactor":0.75},"emissiveFactor":[0.0,0.0,0.0],"doubleSided":true},{"name":"Material.004","pbrMetallicRoughness":{"baseColorFactor":[0.693868,0.799104,0.039546,1.0],"metallicFactor":0.5,"roughnessFactor":0.75},"emissiveFactor":[0.0,0.0,0.0],"doubleSided":true}],"meshes":[{"name":"Mesh0","primitives":[{"indices":3,"material":0,"attributes":{"POSITION":0,"NORMAL":1,"TEXCOORD_0":2}},{"indices":4,"material":1,"attributes":{"POSITION":0,"NORMAL":1,"TEXCOORD_0":2}},{"indices":5,"material":2,"attributes":{"POSITION":0,"NORMAL":1,"TEXCOORD_0":2}},{"indices":6,"material":3,"attributes":{"POSITION":0,"NORMAL":1,"TEXCOORD_0":2}},{"indices":7,"material":4,"attributes":{"POSITION":0,"NORMAL":1,"TEXCOORD_0":2}},{"indices":8,"material":5,"attributes":{"POSITION":0,"NORMAL":1,"TEXCOORD_0":2}}]}],"accessors":[{"bufferView":0,"componentType":5126,"count":629,"type":"VEC3","min":[-0.82360125,-0.009548426,-0.5967649],"max":[0.8230049,4.440752,0.80744135]},{"bufferView":1,"componentType":5126,"count":629,"type":"VEC3"},{"bufferView":2,"componentType":5126,"count":629,"type":"VEC2"},{"bufferView":3,"componentType":5123,"count":8640,"type":"SCALAR"},{"bufferView":4,"componentType":5123,"count":108,"type":"SCALAR"},{"bufferView":5,"componentType":5123,"count":108,"type":"SCALAR"},{"bufferView":6,"componentType":5123,"count":108,"type":"SCALAR"},{"bufferView":7,"componentType":5123,"count":108,"type":"SCALAR"},{"bufferView":8,"componentType":5123,"count":108,"type":"SCALAR"}],"bufferViews":[{"target":34962,"buffer":0,"byteLength":7548,"byteOffset":0},{"target":34962,"buffer":0,"byteLength":7548,"byteOffset":7548},{"target":34962,"buffer":0,"byteLength":5032,"byteOffset":15096},{"target":34963,"buffer":0,"byteLength":17280,"byteOffset":20128},{"target":34963,"buffer":0,"byteLength":216,"byteOffset":37408},{"target":34963,"buffer":0,"byteLength":216,"byteOffset":37624},{"target":34963,"buffer":0,"byteLength":216,"byteOffset":37840},{"target":34963,"buffer":0,"byteLength":216,"byteOffset":38056},{"target":34963,"buffer":0,"byteLength":216,"byteOffset":38272}],"buffers":[{"byteLength":38488,"uri":"data:application/octet-stream;base64,"}]}