{"scene":0,"asset":{"generator":"ImageToStl.com","version":"2.0"},"scenes":[{"name":"Scene","nodes":[0]}],"nodes":[{"name":"Node0","children":[1]},{"name":"Node1","mesh":0}],"materials":[{"name":"Material","pbrMetallicRoughness":{"baseColorFactor":[0.801196,0.274044,0.316975,1.0],"metallicFactor":0.5,"roughnessFactor":0.75},"emissiveFactor":[0.0,0.0,0.0],"doubleSided":true},{"name":"Material.001","pbrMetallicRoughness":{"baseColorFactor":[0.800157,0.043032,0.045048,1.0],"metallicFactor":0.5,"roughnessFactor":0.75},"emissiveFactor":[0.0,0.0,0.0],"doubleSided":true}],"meshes":[{"name":"Mesh0","primitives":[{"indices":3,"material":0,"attributes":{"POSITION":0,"NORMAL":1,"TEXCOORD_0":2}}]}],"accessors":[{"bufferView":0,"componentType":5126,"count":147,"type":"VEC3","min":[-1.3463186,-0.008769479,-4.197735],"max":[1.0876595,1.9913561,3.802299]},{"bufferView":1,"componentType":5126,"count":147,"type":"VEC3"},{"bufferView":2,"componentType":5126,"count":147,"type":"VEC2"},{"bufferView":3,"componentType":5123,"count":2412,"type":"SCALAR"}],"bufferViews":[{"target":34962,"buffer":0,"byteLength":1764,"byteOffset":0},{"target":34962,"buffer":0,"byteLength":1764,"byteOffset":1764},{"target":34962,"buffer":0,"byteLength":1176,"byteOffset":3528},{"target":34963,"buffer":0,"byteLength":4824,"byteOffset":4704}],"buffers":[{"byteLength":9528,"uri":"data:application/octet-stream;base64,"}]}