{"scene":0,"asset":{"generator":"ImageToStl.com","version":"2.0"},"scenes":[{"name":"Scene","nodes":[0]}],"nodes":[{"name":"Node0","children":[1,2,3,4,5,6,7,8,9,10,11,12,13,14,15,16]},{"name":"Node1","mesh":0},{"name":"Node2","mesh":1},{"name":"Node3","mesh":2},{"name":"Node4","mesh":3},{"name":"Node5","mesh":4},{"name":"Node6","mesh":5},{"name":"Node7","mesh":6},{"name":"Node8","mesh":7},{"name":"Node9","mesh":8},{"name":"Node10","mesh":9},{"name":"Node11","mesh":10},{"name":"Node12","mesh":11},{"name":"Node13","mesh":12},{"name":"Node14","mesh":13},{"name":"Node15","mesh":14},{"name":"Node16","mesh":15}],"materials":[{"name":"Material.005","pbrMetallicRoughness":{"baseColorFactor":[0.096377,0.801493,0.726844,1.0],"metallicFactor":0.5,"roughnessFactor":0.75},"emissiveFactor":[0.0,0.0,0.0],"doubleSided":true},{"name":"Material.004","pbrMetallicRoughness":{"baseColorFactor":[0.0,0.0,0.0,1.0],"metallicFactor":0.5,"roughnessFactor":0.75},"emissiveFactor":[0.0,0.0,0.0],"doubleSided":true},{"name":"Material.003","pbrMetallicRoughness":{"baseColorFactor":[0.0,0.0,0.0,1.0],"metallicFactor":0.5,"roughnessFactor":0.75},"emissiveFactor":[0.0,0.0,0.0],"doubleSided":true},{"name":"Material.006","pbrMetallicRoughness":{"baseColorFactor":[1.0,1.0,1.0,1.0],"metallicFactor":0.5,"roughnessFactor":0.75},"emissiveFactor":[0.0,0.0,0.0],"doubleSided":true},{"name":"Material.007","pbrMetallicRoughness":{"baseColorFactor":[1.0,1.0,1.0,1.0],"metallicFactor":0.5,"roughnessFactor":0.75},"emissiveFactor":[0.0,0.0,0.0],"doubleSided":true},{"name":"Material.008","pbrMetallicRoughness":{"baseColorFactor":[1.0,1.0,1.0,1.0],"metallicFactor":0.5,"roughnessFactor":0.75},"emissiveFactor":[0.0,0.0,0.0],"doubleSided":true},{"name":"Material.009","pbrMetallicRoughness":{"baseColorFactor":[1.0,1.0,1.0,1.0],"metallicFactor":0.5,"roughnessFactor":0.75},"emissiveFactor":[0.0,0.0,0.0],"doubleSided":true},{"name":"Material.010","pbrMetallicRoughness":{"baseColorFactor":[1.0,1.0,1.0,1.0],"metallicFactor":0.5,"roughnessFactor":0.75},"emissiveFactor":[0.0,0.0,0.0],"doubleSided":true},{"name":"Material.011","pbrMetallicRoughness":{"baseColorFactor":[1.0,1.0,1.0,1.0],"metallicFactor":0.5,"roughnessFactor":0.75},"emissiveFactor":[0.0,0.0,0.0],"doubleSided":true},{"name":"Material.012","pbrMetallicRoughness":{"baseColorFactor":[1.0,1.0,1.0,1.0],"metallicFactor":0.5,"roughnessFactor":0.75},"emissiveFactor":[0.0,0.0,0.0],"doubleSided":true},{"name":"Material.013","pbrMetallicRoughness":{"baseColorFactor":[1.0,1.0,1.0,1.0],"metallicFactor":0.5,"roughnessFactor":0.75},"emissiveFactor":[0.0,0.0,0.0],"doubleSided":true},{"name":"Material.014","pbrMetallicRoughness":{"baseColorFactor":[1.0,1.0,1.0,1.0],"metallicFactor":0.5,"roughnessFactor":0.75},"emissiveFactor":[0.0,0.0,0.0],"doubleSided":true},{"name":"Material.015","pbrMetallicRoughness":{"baseColorFactor":[1.0,1.0,1.0,1.0],"metallicFactor":0.5,"roughnessFactor":0.75},"emissiveFactor":[0.0,0.0,0.0],"doubleSided":true},{"name":"Material.016","pbrMetallicRoughness":{"baseColorFactor":[1.0,1.0,1.0,1.0],"metallicFactor":0.5,"roughnessFactor":0.75},"emissiveFactor":[0.0,0.0,0.0],"doubleSided":true},{"name":"Material.017","pbrMetallicRoughness":{"baseColorFactor":[1.0,1.0,1.0,1.0],"metallicFactor":0.5,"roughnessFactor":0.75},"emissiveFactor":[0.0,0.0,0.0],"doubleSided":true},{"name":"Material.018","pbrMetallicRoughness":{"baseColorFactor":[1.0,1.0,1.0,1.0],"metallicFactor":0.5,"roughnessFactor":0.75},"emissiveFactor":[0.0,0.0,0.0],"doubleSided":true}],"meshes":[{"name":"Mesh0","primitives":[{"indices":3,"material":0,"attributes":{"POSITION":0,"NORMAL":1,"TEXCOORD_0":2}}]},{"name":"Mesh0","primitives":[{"indices":7,"material":1,"attributes":{"POSITION":4,"NORMAL":5,"TEXCOORD_0":6}}]},{"name":"Mesh0","primitives":[{"indices":11,"material":2,"attributes":{"POSITION":8,"NORMAL":9,"TEXCOORD_0":10}}]},{"name":"Mesh0","primitives":[{"indices":15,"material":3,"attributes":{"POSITION":12,"NORMAL":13,"TEXCOORD_0":14}}]},{"name":"Mesh0","primitives":[{"indices":19,"material":4,"attributes":{"POSITION":16,"NORMAL":17,"TEXCOORD_0":18}}]},{"name":"Mesh0","primitives":[{"indices":23,"material":5,"attributes":{"POSITION":20,"NORMAL":21,"TEXCOORD_0":22}}]},{"name":"Mesh0","primitives":[{"indices":27,"material":6,"attributes":{"POSITION":24,"NORMAL":25,"TEXCOORD_0":26}}]},{"name":"Mesh0","primitives":[{"indices":31,"material":7,"attributes":{"POSITION":28,"NORMAL":29,"TEXCOORD_0":30}}]},{"name":"Mesh0","primitives":[{"indices":35,"material":8,"attributes":{"POSITION":32,"NORMAL":33,"TEXCOORD_0":34}}]},{"name":"Mesh0","primitives":[{"indices":39,"material":9,"attributes":{"POSITION":36,"NORMAL":37,"TEXCOORD_0":38}}]},{"name":"Mesh0","primitives":[{"indices":43,"material":10,"attributes":{"POSITION":40,"NORMAL":41,"TEXCOORD_0":42}}]},{"name":"Mesh0","primitives":[{"indices":47,"material":11,"attributes":{"POSITION":44,"NORMAL":45,"TEXCOORD_0":46}}]},{"name":"Mesh0","primitives":[{"indices":51,"material":12,"attributes":{"POSITION":48,"NORMAL":49,"TEXCOORD_0":50}}]},{"name":"Mesh0","primitives":[{"indices":55,"material":13,"attributes":{"POSITION":52,"NORMAL":53,"TEXCOORD_0":54}}]},{"name":"Mesh0","primitives":[{"indices":59,"material":14,"attributes":{"POSITION":56,"NORMAL":57,"TEXCOORD_0":58}}]},{"name":"Mesh0","primitives":[{"indices":63,"material":15,"attributes":{"POSITION":60,"NORMAL":61,"TEXCOORD_0":62}}]}],"accessors":[{"bufferView":0,"componentType":5126,"count":20,"type":"VEC3","min":[-0.93523365,0.018309832,-3.9947343],"max":[1.068863,2.0237782,4.005472]},{"bufferView":1,"componentType":5126,"count":20,"type":"VEC3"},{"bufferView":2,"componentType":5126,"count":20,"type":"VEC2"},{"bufferView":3,"componentType":5123,"count":180,"type":"SCALAR"},{"bufferView":4,"componentType":5126,"count":64,"type":"VEC3","min":[-1.1307988,0.0128314495,-2.99858],"max":[1.2477816,1.0495243,-1.9667557]},{"bufferView":5,"componentType":5126,"count":64,"type":"VEC3"},{"bufferView":6,"componentType":5126,"count":64,"type":"VEC2"},{"bufferView":7,"componentType":5123,"count":1116,"type":"SCALAR"},{"bufferView":8,"componentType":5126,"count":64,"type":"VEC3","min":[-1.118925,0.012807667,1.5253929],"max":[1.2596555,1.0495005,2.5572171]},{"bufferView":9,"componentType":5126,"count":64,"type":"VEC3"},{"bufferView":10,"componentType":5126,"count":64,"type":"VEC2"},{"bufferView":11,"componentType":5123,"count":1116,"type":"SCALAR"},{"bufferView":12,"componentType":5126,"count":32,"type":"VEC3","min":[-1.1297482,0.21964109,1.7248809],"max":[-1.1253129,0.8471807,2.3524077]},{"bufferView":13,"componentType":5126,"count":32,"type":"VEC3"},{"bufferView":14,"componentType":5126,"count":32,"type":"VEC2"},{"bufferView":15,"componentType":5123,"count":270,"type":"SCALAR"},{"bufferView":16,"componentType":5126,"count":32,"type":"VEC3","min":[-1.1379355,0.22610193,-2.7876797],"max":[-1.1335002,0.85364157,-2.160153]},{"bufferView":17,"componentType":5126,"count":32,"type":"VEC3"},{"bufferView":18,"componentType":5126,"count":32,"type":"VEC2"},{"bufferView":19,"componentType":5123,"count":270,"type":"SCALAR"},{"bufferView":20,"componentType":5126,"count":32,"type":"VEC3","min":[1.257361,0.22119528,-2.7876797],"max":[1.2617964,0.8487349,-2.160153]},{"bufferView":21,"componentType":5126,"count":32,"type":"VEC3"},{"bufferView":22,"componentType":5126,"count":32,"type":"VEC2"},{"bufferView":23,"componentType":5123,"count":270,"type":"SCALAR"},{"bufferView":24,"componentType":5126,"count":32,"type":"VEC3","min":[1.2655483,0.21473444,1.7248809],"max":[1.2699836,0.84227407,2.3524077]},{"bufferView":25,"componentType":5126,"count":32,"type":"VEC3"},{"bufferView":26,"componentType":5126,"count":32,"type":"VEC2"},{"bufferView":27,"componentType":5123,"count":270,"type":"SCALAR"},{"bufferView":28,"componentType":5126,"count":6,"type":"VEC3","min":[-0.95670897,1.2654489,2.0590549],"max":[-0.9548334,1.8658192,3.4592834]},{"bufferView":29,"componentType":5126,"count":6,"type":"VEC3"},{"bufferView":30,"componentType":5126,"count":6,"type":"VEC2"},{"bufferView":31,"componentType":5123,"count":36,"type":"SCALAR"},{"bufferView":32,"componentType":5126,"count":6,"type":"VEC3","min":[1.0846795,1.2612674,2.0590549],"max":[1.0865551,1.8616377,3.4592834]},{"bufferView":33,"componentType":5126,"count":6,"type":"VEC3"},{"bufferView":34,"componentType":5126,"count":6,"type":"VEC2"},{"bufferView":35,"componentType":5123,"count":36,"type":"SCALAR"},{"bufferView":36,"componentType":5126,"count":6,"type":"VEC3","min":[-0.9601663,1.2515883,0.13913155],"max":[-0.958197,1.8519586,1.5393603]},{"bufferView":37,"componentType":5126,"count":6,"type":"VEC3"},{"bufferView":38,"componentType":5126,"count":6,"type":"VEC2"},{"bufferView":39,"componentType":5123,"count":36,"type":"SCALAR"},{"bufferView":40,"componentType":5126,"count":6,"type":"VEC3","min":[-0.94758916,1.2530993,-1.6746178],"max":[-0.9456199,1.8534696,-0.27438897]},{"bufferView":41,"componentType":5126,"count":6,"type":"VEC3"},{"bufferView":42,"componentType":5126,"count":6,"type":"VEC2"},{"bufferView":43,"componentType":5123,"count":36,"type":"SCALAR"},{"bufferView":44,"componentType":5126,"count":6,"type":"VEC3","min":[-0.942123,1.2308781,-3.522421],"max":[-0.9401537,1.8312484,-2.122192]},{"bufferView":45,"componentType":5126,"count":6,"type":"VEC3"},{"bufferView":46,"componentType":5126,"count":6,"type":"VEC2"},{"bufferView":47,"componentType":5123,"count":36,"type":"SCALAR"},{"bufferView":48,"componentType":5126,"count":6,"type":"VEC3","min":[1.0923657,1.2267108,-3.522421],"max":[1.0943351,1.8270811,-2.122192]},{"bufferView":49,"componentType":5126,"count":6,"type":"VEC3"},{"bufferView":50,"componentType":5126,"count":6,"type":"VEC2"},{"bufferView":51,"componentType":5123,"count":36,"type":"SCALAR"},{"bufferView":52,"componentType":5126,"count":6,"type":"VEC3","min":[1.0868996,1.2489319,-1.6746178],"max":[1.088869,1.8493022,-0.27438897]},{"bufferView":53,"componentType":5126,"count":6,"type":"VEC3"},{"bufferView":54,"componentType":5126,"count":6,"type":"VEC2"},{"bufferView":55,"componentType":5123,"count":36,"type":"SCALAR"},{"bufferView":56,"componentType":5126,"count":6,"type":"VEC3","min":[1.0743227,1.2474209,0.13913155],"max":[1.076292,1.8477912,1.5393603]},{"bufferView":57,"componentType":5126,"count":6,"type":"VEC3"},{"bufferView":58,"componentType":5126,"count":6,"type":"VEC2"},{"bufferView":59,"componentType":5123,"count":36,"type":"SCALAR"},{"bufferView":60,"componentType":5126,"count":4,"type":"VEC3","min":[-0.82858914,1.3119005,3.2746482],"max":[0.9714108,1.9737424,3.970037]},{"bufferView":61,"componentType":5126,"count":4,"type":"VEC3"},{"bufferView":62,"componentType":5126,"count":4,"type":"VEC2"},{"bufferView":63,"componentType":5123,"count":18,"type":"SCALAR"}],"bufferViews":[{"target":34962,"buffer":0,"byteLength":240,"byteOffset":0},{"target":34962,"buffer":0,"byteLength":240,"byteOffset":240},{"target":34962,"buffer":0,"byteLength":160,"byteOffset":480},{"target":34963,"buffer":0,"byteLength":360,"byteOffset":640},{"target":34962,"buffer":0,"byteLength":768,"byteOffset":1000},{"target":34962,"buffer":0,"byteLength":768,"byteOffset":1768},{"target":34962,"buffer":0,"byteLength":512,"byteOffset":2536},{"target":34963,"buffer":0,"byteLength":2232,"byteOffset":3048},{"target":34962,"buffer":0,"byteLength":768,"byteOffset":5280},{"target":34962,"buffer":0,"byteLength":768,"byteOffset":6048},{"target":34962,"buffer":0,"byteLength":512,"byteOffset":6816},{"target":34963,"buffer":0,"byteLength":2232,"byteOffset":7328},{"target":34962,"buffer":0,"byteLength":384,"byteOffset":9560},{"target":34962,"buffer":0,"byteLength":384,"byteOffset":9944},{"target":34962,"buffer":0,"byteLength":256,"byteOffset":10328},{"target":34963,"buffer":0,"byteLength":540,"byteOffset":10584},{"target":34962,"buffer":0,"byteLength":384,"byteOffset":11124},{"target":34962,"buffer":0,"byteLength":384,"byteOffset":11508},{"target":34962,"buffer":0,"byteLength":256,"byteOffset":11892},{"target":34963,"buffer":0,"byteLength":540,"byteOffset":12148},{"target":34962,"buffer":0,"byteLength":384,"byteOffset":12688},{"target":34962,"buffer":0,"byteLength":384,"byteOffset":13072},{"target":34962,"buffer":0,"byteLength":256,"byteOffset":13456},{"target":34963,"buffer":0,"byteLength":540,"byteOffset":13712},{"target":34962,"buffer":0,"byteLength":384,"byteOffset":14252},{"target":34962,"buffer":0,"byteLength":384,"byteOffset":14636},{"target":34962,"buffer":0,"byteLength":256,"byteOffset":15020},{"target":34963,"buffer":0,"byteLength":540,"byteOffset":15276},{"target":34962,"buffer":0,"byteLength":72,"byteOffset":15816},{"target":34962,"buffer":0,"byteLength":72,"byteOffset":15888},{"target":34962,"buffer":0,"byteLength":48,"byteOffset":15960},{"target":34963,"buffer":0,"byteLength":72,"byteOffset":16008},{"target":34962,"buffer":0,"byteLength":72,"byteOffset":16080},{"target":34962,"buffer":0,"byteLength":72,"byteOffset":16152},{"target":34962,"buffer":0,"byteLength":48,"byteOffset":16224},{"target":34963,"buffer":0,"byteLength":72,"byteOffset":16272},{"target":34962,"buffer":0,"byteLength":72,"byteOffset":16344},{"target":34962,"buffer":0,"byteLength":72,"byteOffset":16416},{"target":34962,"buffer":0,"byteLength":48,"byteOffset":16488},{"target":34963,"buffer":0,"byteLength":72,"byteOffset":16536},{"target":34962,"buffer":0,"byteLength":72,"byteOffset":16608},{"target":34962,"buffer":0,"byteLength":72,"byteOffset":16680},{"target":34962,"buffer":0,"byteLength":48,"byteOffset":16752},{"target":34963,"buffer":0,"byteLength":72,"byteOffset":16800},{"target":34962,"buffer":0,"byteLength":72,"byteOffset":16872},{"target":34962,"buffer":0,"byteLength":72,"byteOffset":16944},{"target":34962,"buffer":0,"byteLength":48,"byteOffset":17016},{"target":34963,"buffer":0,"byteLength":72,"byteOffset":17064},{"target":34962,"buffer":0,"byteLength":72,"byteOffset":17136},{"target":34962,"buffer":0,"byteLength":72,"byteOffset":17208},{"target":34962,"buffer":0,"byteLength":48,"byteOffset":17280},{"target":34963,"buffer":0,"byteLength":72,"byteOffset":17328},{"target":34962,"buffer":0,"byteLength":72,"byteOffset":17400},{"target":34962,"buffer":0,"byteLength":72,"byteOffset":17472},{"target":34962,"buffer":0,"byteLength":48,"byteOffset":17544},{"target":34963,"buffer":0,"byteLength":72,"byteOffset":17592},{"target":34962,"buffer":0,"byteLength":72,"byteOffset":17664},{"target":34962,"buffer":0,"byteLength":72,"byteOffset":17736},{"target":34962,"buffer":0,"byteLength":48,"byteOffset":17808},{"target":34963,"buffer":0,"byteLength":72,"byteOffset":17856},{"target":34962,"buffer":0,"byteLength":48,"byteOffset":17928},{"target":34962,"buffer":0,"byteLength":48,"byteOffset":17976},{"target":34962,"buffer":0,"byteLength":32,"byteOffset":18024},{"target":34963,"buffer":0,"byteLength":36,"byteOffset":18056}],"buffers":[{"byteLength":18092,"uri":"data:application/octet-stream;base64,"}]}